<?xml version="1.0" encoding="utf-8"?>
<!-- Generator: Adobe Illustrator 27.0.0, SVG Export Plug-In . SVG Version: 6.00 Build 0)  -->
<svg version="1.1" id="Layer_1" xmlns="http://www.w3.org/2000/svg" xmlns:xlink="http://www.w3.org/1999/xlink" x="0px" y="0px"
	 viewBox="0 0 1080 1080" style="enable-background:new 0 0 1080 1080;" xml:space="preserve">
<style type="text/css">
	.st0{fill:#66CC33;stroke:#000000;stroke-miterlimit:10;}
	.st1{fill:#FFFFFF;stroke:#000000;stroke-miterlimit:10;}
	.st2{stroke:#000000;stroke-miterlimit:10;}
</style>
<path class="st0" d="M181.8,360c-4.14-20.3,7.57-40.5,27.24-46.97c47.19-15.51,173.81-32.73,164.05,65.65
	c-33.52,338.13,203.05,288.82,284.98,149.06S466.03,185.57,930.37,242.19c48.41,5.9,77.09,184.48-39.05,165.66
	c-57.05-9.24-112.37,24.12-129.62,79.28l-70.57,225.65c-10.83,36.75-17.4,65.55-77.64,73.98C504.72,802,297.8,807.51,235.19,627.73
	C173.42,450.36,193.84,419.04,181.8,360z"/>
<circle class="st1" cx="772.11" cy="289.1" r="21.69"/>
<g>
	<g>
		<path d="M802.12,357.37c7.78,0.99,15.55,1.98,23.33,2.97c7.48,0.95,14.99,1.84,22.53,1.98c13.04,0.23,26.45-2.07,37.34-9.66
			c5.45-3.8,10.04-8.77,12.91-14.8c0.82-1.73-1.76-3.26-2.59-1.51c-4.96,10.44-15.1,17.21-25.94,20.43
			c-13.72,4.07-28.37,2.55-42.33,0.81c-8.41-1.05-16.82-2.14-25.24-3.21C800.21,354.13,800.23,357.13,802.12,357.37L802.12,357.37z"
			/>
	</g>
</g>
<circle class="st2" cx="772.11" cy="289.1" r="8.13"/>
<polygon class="st2" points="361.27,446.93 405.84,469.82 361.27,504.76 "/>
<polygon class="st2" points="372.11,540 410.66,540 391.39,583.07 "/>
<polygon class="st2" points="410.66,610.78 454.04,583.07 454.04,633.67 "/>
<polygon class="st2" points="492.59,640.9 503.43,592.71 540,633.67 "/>
<polygon class="st2" points="576.79,616.81 569.7,572.23 613.07,592.71 "/>
<polygon class="st2" points="633.55,572.23 613.07,540 656.45,545.72 "/>
<polygon class="st2" points="670.9,513.03 648.01,492.71 681.75,486.69 "/>
<circle class="st1" cx="815.48" cy="267.41" r="21.69"/>
<circle class="st2" cx="815.48" cy="267.41" r="8.13"/>
</svg>
